<svg width="18" height="20" viewBox="0 0 18 20" fill="none" xmlns="http://www.w3.org/2000/svg">
<path d="M12.3745 18.753C12.4195 19.0863 12.307 19.4418 12.0483 19.6751C11.9443 19.7781 11.8207 19.8598 11.6846 19.9156C11.5485 19.9713 11.4026 20 11.2553 20C11.108 20 10.9621 19.9713 10.826 19.9156C10.69 19.8598 10.5664 19.7781 10.4623 19.6751L5.95167 15.2202C5.82899 15.1017 5.73571 14.9568 5.67912 14.7969C5.62253 14.6369 5.60417 14.4662 5.62547 14.2981V8.60994L0.237463 1.79976C0.0547977 1.56815 -0.0276246 1.27456 0.00820636 0.983122C0.0440373 0.691686 0.195208 0.426105 0.428687 0.244411C0.642407 0.0888769 0.878624 0 1.12609 0H16.8739C17.1214 0 17.3576 0.0888769 17.5713 0.244411C17.8048 0.426105 17.956 0.691686 17.9918 0.983122C18.0276 1.27456 17.9452 1.56815 17.7625 1.79976L12.3745 8.60994V18.753ZM3.42077 2.22192L7.87516 7.84338V13.9759L10.1248 16.1978V7.83227L14.5792 2.22192H3.42077Z" fill="white"/>
</svg>